<?xml version="1.0" encoding="UTF-8"?>
<!DOCTYPE svg PUBLIC "-//W3C//DTD SVG 1.1//EN" "http://www.w3.org/Graphics/SVG/1.1/DTD/svg11.dtd">
<!-- Creator: CorelDRAW -->
<svg xmlns="http://www.w3.org/2000/svg" xml:space="preserve" width="13.7795in" height="3.93701in" version="1.1" style="shape-rendering:geometricPrecision; text-rendering:geometricPrecision; image-rendering:optimizeQuality; fill-rule:evenodd; clip-rule:evenodd"
viewBox="0 0 13779.53 3937.01"
 xmlns:xlink="http://www.w3.org/1999/xlink"
 xmlns:xodm="http://www.corel.com/coreldraw/odm/2003">
 <defs>
  <style type="text/css">
   <![CDATA[
    .str0 {stroke:#162E68;stroke-width:6.94;stroke-miterlimit:2.61313}
    .fil1 {fill:none}
    .fil0 {fill:#162E68}
   ]]>
  </style>
 </defs>
 <g id="Layer_x0020_1">
  <metadata id="CorelCorpID_0Corel-Layer"/>
  <g>
   <path class="fil0" d="M2969.98 689.62c707.13,0 1280.36,573.24 1280.36,1280.36 0,707.13 -573.24,1280.36 -1280.36,1280.36 -707.13,0 -1280.36,-573.24 -1280.36,-1280.36 0,-707.13 573.24,-1280.36 1280.36,-1280.36zm2457.39 3737.75c-628.9,628.9 -1497.72,1017.88 -2457.39,1017.88 -1919.34,0 -3475.27,-1555.93 -3475.27,-3475.27 0,-1919.34 1555.93,-3475.27 3475.27,-3475.27 959.67,0 1828.49,388.98 2457.39,1017.88l0 4914.78zm0 0l1293.37 1293.37c-994.77,994.77 -2343.96,1553.61 -3750.76,1553.61 -2929.52,0 -5304.36,-2374.84 -5304.36,-5304.36 0,-2929.52 2374.84,-5304.36 5304.36,-5304.36 1406.79,0 2755.99,558.84 3750.76,1553.61l-1293.37 1293.37 0 4914.78z"/>
   <path id="_1" class="fil1 str0" d="M2969.98 689.62c707.13,0 1280.36,573.24 1280.36,1280.36 0,707.13 -573.24,1280.36 -1280.36,1280.36 -707.13,0 -1280.36,-573.24 -1280.36,-1280.36 0,-707.13 573.24,-1280.36 1280.36,-1280.36zm2457.39 3737.75c-628.9,628.9 -1497.72,1017.88 -2457.39,1017.88 -1919.34,0 -3475.27,-1555.93 -3475.27,-3475.27 0,-1919.34 1555.93,-3475.27 3475.27,-3475.27 959.67,0 1828.49,388.98 2457.39,1017.88m0 4914.78l1293.37 1293.37c-994.77,994.77 -2343.96,1553.61 -3750.76,1553.61 -2929.52,0 -5304.36,-2374.84 -5304.36,-5304.36 0,-2929.52 2374.84,-5304.36 5304.36,-5304.36 1406.79,0 2755.99,558.84 3750.76,1553.61l-1293.37 1293.37"/>
  </g>
 </g>
</svg>
