<?xml version="1.0" encoding="UTF-8"?>
<!DOCTYPE svg PUBLIC "-//W3C//DTD SVG 1.1//EN" "http://www.w3.org/Graphics/SVG/1.1/DTD/svg11.dtd">
<!-- Creator: CorelDRAW -->
<svg xmlns="http://www.w3.org/2000/svg" xml:space="preserve" width="27.5591in" height="27.5591in" version="1.1" style="shape-rendering:geometricPrecision; text-rendering:geometricPrecision; image-rendering:optimizeQuality; fill-rule:evenodd; clip-rule:evenodd"
viewBox="0 0 27559.06 27559.06"
 xmlns:xlink="http://www.w3.org/1999/xlink"
 xmlns:xodm="http://www.corel.com/coreldraw/odm/2003">
 <defs>
  <style type="text/css">
   <![CDATA[
    .str0 {stroke:#162E68;stroke-width:6.94;stroke-miterlimit:2.61313}
    .fil1 {fill:none}
    .fil0 {fill:#162E68}
   ]]>
  </style>
 </defs>
 <g id="Layer_x0020_1">
  <metadata id="CorelCorpID_0Corel-Layer"/>
  <g>
   <path class="fil0" d="M15735.59 10555.16c1781.03,0 3224.84,1443.81 3224.84,3224.84 0,1781.04 -1443.81,3224.84 -3224.84,3224.84 -1781.04,0 -3224.84,-1443.81 -3224.84,-3224.84 0,-1781.04 1443.81,-3224.84 3224.84,-3224.84zm6189.41 9414.25c-1584,1584.01 -3772.31,2563.73 -6189.41,2563.73 -4834.22,0 -8753.14,-3918.92 -8753.14,-8753.14 0,-4834.22 3918.92,-8753.14 8753.14,-8753.14 2417.1,0 4605.41,979.72 6189.41,2563.73l0 12378.82zm0 0l3257.59 3257.59c-2505.52,2505.52 -5903.72,3913.06 -9447,3913.06 -7378.57,0 -13360.06,-5981.49 -13360.06,-13360.06 0,-7378.57 5981.49,-13360.06 13360.06,-13360.06 3543.27,0 6941.48,1407.54 9447,3913.06l-3257.59 3257.59 0 12378.82z"/>
   <path id="_1" class="fil1 str0" d="M15735.59 10555.16c1781.03,0 3224.84,1443.81 3224.84,3224.84 0,1781.04 -1443.81,3224.84 -3224.84,3224.84 -1781.04,0 -3224.84,-1443.81 -3224.84,-3224.84 0,-1781.04 1443.81,-3224.84 3224.84,-3224.84zm6189.41 9414.25c-1584,1584.01 -3772.31,2563.73 -6189.41,2563.73 -4834.22,0 -8753.14,-3918.92 -8753.14,-8753.14 0,-4834.22 3918.92,-8753.14 8753.14,-8753.14 2417.1,0 4605.41,979.72 6189.41,2563.73m0 12378.82l3257.59 3257.59c-2505.52,2505.52 -5903.72,3913.06 -9447,3913.06 -7378.57,0 -13360.06,-5981.49 -13360.06,-13360.06 0,-7378.57 5981.49,-13360.06 13360.06,-13360.06 3543.27,0 6941.48,1407.54 9447,3913.06l-3257.59 3257.59"/>
  </g>
 </g>
</svg>
