<?xml version="1.0" encoding="UTF-8"?>
<!DOCTYPE svg PUBLIC "-//W3C//DTD SVG 1.1//EN" "http://www.w3.org/Graphics/SVG/1.1/DTD/svg11.dtd">
<!-- Creator: CorelDRAW -->
<svg xmlns="http://www.w3.org/2000/svg" xml:space="preserve" width="13.7795in" height="3.93701in" version="1.1" style="shape-rendering:geometricPrecision; text-rendering:geometricPrecision; image-rendering:optimizeQuality; fill-rule:evenodd; clip-rule:evenodd"
viewBox="0 0 13779.53 3937.01"
 xmlns:xlink="http://www.w3.org/1999/xlink"
 xmlns:xodm="http://www.corel.com/coreldraw/odm/2003">
 <defs>
  <style type="text/css">
   <![CDATA[
    .str0 {stroke:#162E68;stroke-width:6.94;stroke-miterlimit:2.61313}
    .fil1 {fill:none}
    .fil0 {fill:#162E68}
   ]]>
  </style>
 </defs>
 <g id="Layer_x0020_1">
  <metadata id="CorelCorpID_0Corel-Layer"/>
  <g>
   <path class="fil0" d="M3206.4 299.94c922.34,0 1670.04,747.7 1670.04,1670.04 0,922.34 -747.7,1670.04 -1670.04,1670.04 -922.34,0 -1670.04,-747.7 -1670.04,-1670.04 0,-922.34 747.7,-1670.04 1670.04,-1670.04zm3205.29 4875.33c-820.31,820.3 -1953.56,1327.67 -3205.29,1327.67 -2503.48,0 -4532.96,-2029.48 -4532.96,-4532.96 0,-2503.48 2029.48,-4532.96 4532.96,-4532.96 1251.74,0 2384.98,507.37 3205.29,1327.67l0 6410.58zm0 0l1687 1687c-1297.52,1297.52 -3057.35,2026.44 -4892.29,2026.44 -3821.12,0 -6918.74,-3097.62 -6918.74,-6918.73 0,-3821.11 3097.62,-6918.73 6918.74,-6918.73 1834.94,0 3594.76,728.92 4892.29,2026.44l-1687 1687 0 6410.58z"/>
   <path id="_1" class="fil1 str0" d="M3206.4 299.94c922.34,0 1670.04,747.7 1670.04,1670.04 0,922.34 -747.7,1670.04 -1670.04,1670.04 -922.34,0 -1670.04,-747.7 -1670.04,-1670.04 0,-922.34 747.7,-1670.04 1670.04,-1670.04zm3205.29 4875.33c-820.31,820.3 -1953.56,1327.67 -3205.29,1327.67 -2503.48,0 -4532.96,-2029.48 -4532.96,-4532.96 0,-2503.48 2029.48,-4532.96 4532.96,-4532.96 1251.74,0 2384.98,507.37 3205.29,1327.67m0 6410.58l1687 1687c-1297.52,1297.52 -3057.35,2026.44 -4892.29,2026.44 -3821.12,0 -6918.74,-3097.62 -6918.74,-6918.73 0,-3821.11 3097.62,-6918.73 6918.74,-6918.73 1834.94,0 3594.76,728.92 4892.29,2026.44l-1687 1687"/>
  </g>
 </g>
</svg>
