<?xml version="1.0" encoding="UTF-8"?>
<!DOCTYPE svg PUBLIC "-//W3C//DTD SVG 1.1//EN" "http://www.w3.org/Graphics/SVG/1.1/DTD/svg11.dtd">
<!-- Creator: CorelDRAW -->
<svg xmlns="http://www.w3.org/2000/svg" xml:space="preserve" width="19.685in" height="19.685in" version="1.1" style="shape-rendering:geometricPrecision; text-rendering:geometricPrecision; image-rendering:optimizeQuality; fill-rule:evenodd; clip-rule:evenodd"
viewBox="0 0 19685.04 19685.04"
 xmlns:xlink="http://www.w3.org/1999/xlink"
 xmlns:xodm="http://www.corel.com/coreldraw/odm/2003">
 <defs>
  <style type="text/css">
   <![CDATA[
    .str0 {stroke:#162E68;stroke-width:6.94;stroke-miterlimit:2.61313}
    .fil1 {fill:none}
    .fil0 {fill:#162E68}
   ]]>
  </style>
 </defs>
 <g id="Layer_x0020_1">
  <metadata id="CorelCorpID_0Corel-Layer"/>
  <g>
   <path class="fil0" d="M11211.35 7585.82c1246.79,0 2257.52,1010.72 2257.52,2257.52 0,1246.8 -1010.72,2257.52 -2257.52,2257.52 -1246.8,0 -2257.52,-1010.72 -2257.52,-2257.52 0,-1246.8 1010.72,-2257.52 2257.52,-2257.52zm4332.83 6590.35c-1108.87,1108.87 -2640.76,1794.71 -4332.83,1794.71 -3384.15,0 -6127.55,-2743.4 -6127.55,-6127.54 0,-3384.15 2743.4,-6127.54 6127.55,-6127.54 1692.07,0 3223.96,685.85 4332.83,1794.71l0 8665.66zm0 0l2280.44 2280.44c-1753.96,1753.96 -4132.84,2739.3 -6613.27,2739.3 -5165.29,0 -9352.57,-4187.28 -9352.57,-9352.57 0,-5165.29 4187.28,-9352.57 9352.57,-9352.57 2480.43,0 4859.31,985.33 6613.27,2739.3l-2280.44 2280.44 0 8665.66z"/>
   <path id="_1" class="fil1 str0" d="M11211.35 7585.82c1246.79,0 2257.52,1010.72 2257.52,2257.52 0,1246.8 -1010.72,2257.52 -2257.52,2257.52 -1246.8,0 -2257.52,-1010.72 -2257.52,-2257.52 0,-1246.8 1010.72,-2257.52 2257.52,-2257.52zm4332.83 6590.35c-1108.87,1108.87 -2640.76,1794.71 -4332.83,1794.71 -3384.15,0 -6127.55,-2743.4 -6127.55,-6127.54 0,-3384.15 2743.4,-6127.54 6127.55,-6127.54 1692.07,0 3223.96,685.85 4332.83,1794.71m0 8665.66l2280.44 2280.44c-1753.96,1753.96 -4132.84,2739.3 -6613.27,2739.3 -5165.29,0 -9352.57,-4187.28 -9352.57,-9352.57 0,-5165.29 4187.28,-9352.57 9352.57,-9352.57 2480.43,0 4859.31,985.33 6613.27,2739.3l-2280.44 2280.44"/>
  </g>
 </g>
</svg>
