<?xml version="1.0" encoding="UTF-8"?>
<!DOCTYPE svg PUBLIC "-//W3C//DTD SVG 1.1//EN" "http://www.w3.org/Graphics/SVG/1.1/DTD/svg11.dtd">
<!-- Creator: CorelDRAW -->
<svg xmlns="http://www.w3.org/2000/svg" xml:space="preserve" width="13.7795in" height="3.93701in" version="1.1" style="shape-rendering:geometricPrecision; text-rendering:geometricPrecision; image-rendering:optimizeQuality; fill-rule:evenodd; clip-rule:evenodd"
viewBox="0 0 13779.53 3937.01"
 xmlns:xlink="http://www.w3.org/1999/xlink"
 xmlns:xodm="http://www.corel.com/coreldraw/odm/2003">
 <defs>
  <style type="text/css">
   <![CDATA[
    .str0 {stroke:#162E68;stroke-width:6.94;stroke-miterlimit:2.61313}
    .fil1 {fill:none}
    .fil0 {fill:#162E68}
   ]]>
  </style>
 </defs>
 <g id="Layer_x0020_1">
  <metadata id="CorelCorpID_0Corel-Layer"/>
  <g>
   <path class="fil0" d="M2461.6 1527.62c244.32,0 442.38,198.06 442.38,442.38 0,244.32 -198.06,442.38 -442.38,442.38 -244.32,0 -442.38,-198.06 -442.38,-442.38 0,-244.32 198.06,-442.38 442.38,-442.38zm849.06 1291.44c-217.29,217.29 -517.48,351.69 -849.06,351.69 -663.16,0 -1200.75,-537.59 -1200.75,-1200.75 0,-663.16 537.59,-1200.75 1200.75,-1200.75 331.57,0 631.77,134.4 849.06,351.69l0 1698.12zm0 0l446.87 446.87c-343.7,343.7 -809.87,536.79 -1295.93,536.79 -1012.19,0 -1832.72,-820.54 -1832.72,-1832.72 0,-1012.19 820.54,-1832.72 1832.72,-1832.72 486.06,0 952.23,193.08 1295.93,536.79l-446.87 446.87 0 1698.12z"/>
   <path id="_1" class="fil1 str0" d="M2461.6 1527.62c244.32,0 442.38,198.06 442.38,442.38 0,244.32 -198.06,442.38 -442.38,442.38 -244.32,0 -442.38,-198.06 -442.38,-442.38 0,-244.32 198.06,-442.38 442.38,-442.38zm849.06 1291.44c-217.29,217.29 -517.48,351.69 -849.06,351.69 -663.16,0 -1200.75,-537.59 -1200.75,-1200.75 0,-663.16 537.59,-1200.75 1200.75,-1200.75 331.57,0 631.77,134.4 849.06,351.69m0 1698.12l446.87 446.87c-343.7,343.7 -809.87,536.79 -1295.93,536.79 -1012.19,0 -1832.72,-820.54 -1832.72,-1832.72 0,-1012.19 820.54,-1832.72 1832.72,-1832.72 486.06,0 952.23,193.08 1295.93,536.79l-446.87 446.87"/>
  </g>
 </g>
</svg>
